# xmcd
#
# Track frame offsets:
# 150
# 20102
# 41080
# 55235
# 73607
#
# Disc length: 1211 seconds
#
#
# Revision: 0
# Processed by: cddbd v1.4PL0 Copyright (c) Steve Scherf et al.
# Submitted via: FreeRIP 2.40 
#
DISCID=4404b905
DTITLE=The Spinning Wheels Who´ that man - Who´s that man
DYEAR=1998
DGENRE=R&B
TTITLE0=Whos that man
TTITLE1=Honey dont
TTITLE2=Good time
TTITLE3=You better take it easy
TTITLE4=Flip flop and fly
EXTD=The spinning Wheels\nAlemannenstrases 49\nAT-6830 Rankweil/Austria\nPhone +43 664 381 7000\nE-mail: spinning@wheels.vol.at
EXTT0=Lercher Thomas
EXTT1=Lercher Thomas
EXTT2=Lercher Thomas
EXTT3=Lercher Thomas
EXTT4=Blues Brothers
PLAYORDER=
